<svg width="38" height="38" viewBox="0 0 38 38" fill="none" xmlns="http://www.w3.org/2000/svg">
<path d="M35.9312 11.8103L34.1865 10.5802L34.1622 8.4457C34.1608 8.32113 34.1222 8.19981 34.0514 8.09733C33.9806 7.99484 33.8807 7.91587 33.7647 7.87055L31.7765 7.09422L31.244 5.02726C31.2129 4.90661 31.1465 4.79799 31.0532 4.71538C30.96 4.63276 30.8441 4.5799 30.7206 4.56359L28.605 4.28289L27.5951 2.40242C27.536 2.29272 27.4455 2.20314 27.3352 2.14515C27.225 2.08715 27.0999 2.06338 26.976 2.07687L24.854 2.31125L23.4211 0.728202C23.3375 0.63569 23.228 0.570354 23.1069 0.540611C22.9857 0.510869 22.8585 0.518084 22.7415 0.561327L20.7386 1.29953L18.9689 0.106718C18.8657 0.0371595 18.744 0 18.6196 0C18.4951 0 18.3735 0.0371595 18.2703 0.106718L16.5003 1.29953L14.4973 0.561249C14.3803 0.51808 14.253 0.510911 14.1319 0.540663C14.0108 0.570416 13.9013 0.63573 13.8176 0.728202L12.3852 2.31094L10.2633 2.07695C10.1393 2.0632 10.0142 2.08686 9.90381 2.14488C9.79347 2.2029 9.70302 2.29262 9.64411 2.4025L8.63419 4.28297L6.51802 4.56367C6.39448 4.57998 6.27864 4.63285 6.18537 4.71548C6.0921 4.79812 6.02566 4.90675 5.99458 5.02742L5.46224 7.09437L3.47404 7.8707C3.358 7.91602 3.25816 7.99498 3.18732 8.09745C3.11648 8.19992 3.07787 8.32122 3.07646 8.44578L3.05224 10.5803L1.30786 11.8104C1.20595 11.8822 1.12786 11.9829 1.08363 12.0995C1.0394 12.2161 1.03105 12.3432 1.05966 12.4646L1.5495 14.5427L0.152396 16.1563C0.0708863 16.2505 0.0193795 16.3669 0.00448492 16.4906C-0.0104096 16.6142 0.0119873 16.7395 0.0688021 16.8504L1.04232 18.7501L0.0688021 20.6495C0.0119873 20.7603 -0.0104096 20.8856 0.00448492 21.0093C0.0193795 21.1329 0.0708863 21.2493 0.152396 21.3435L1.54927 22.9577L1.05943 25.0359C1.03084 25.1572 1.03921 25.2844 1.08345 25.4009C1.1277 25.5175 1.2058 25.6182 1.30771 25.69L3.05247 26.9201L3.07669 29.0546C3.07809 29.1792 3.11669 29.3005 3.18753 29.403C3.25837 29.5055 3.35822 29.5844 3.47427 29.6298L5.46271 30.4063L5.99513 32.4733C6.02622 32.5939 6.09267 32.7026 6.18593 32.7852C6.2792 32.8678 6.39504 32.9206 6.51857 32.937L8.63443 33.2177L9.64435 35.0981C9.70345 35.2078 9.79393 35.2974 9.90423 35.3554C10.0145 35.4134 10.1396 35.4372 10.2635 35.4237L12.3855 35.1897L13.8183 36.7723C13.902 36.8648 14.0115 36.9301 14.1326 36.9598C14.2538 36.9896 14.381 36.9824 14.498 36.9392L16.5008 36.201L18.2708 37.3938C18.374 37.4634 18.4957 37.5005 18.6201 37.5005C18.7446 37.5005 18.8662 37.4634 18.9694 37.3938L20.7394 36.201L22.7424 36.9393C22.8594 36.9824 22.9867 36.9895 23.1078 36.9598C23.2289 36.93 23.3383 36.8647 23.4221 36.7723L24.8549 35.1896L26.9768 35.424C27.1007 35.4376 27.2259 35.414 27.3362 35.3559C27.4466 35.2979 27.537 35.2083 27.596 35.0984L28.6059 33.218L30.7218 32.9373C30.8454 32.921 30.9612 32.8681 31.0545 32.7855C31.1478 32.7028 31.2142 32.5942 31.2453 32.4735L31.7776 30.4066L33.7658 29.6302C33.8819 29.5849 33.9817 29.506 34.0525 29.4035C34.1234 29.301 34.162 29.1797 34.1634 29.0552L34.1876 26.9206L35.9324 25.6905C36.0343 25.6187 36.1124 25.518 36.1566 25.4014C36.2009 25.2848 36.2092 25.1577 36.1806 25.0363L35.6908 22.9582L37.0868 21.3438C37.1683 21.2496 37.2198 21.1332 37.2347 21.0096C37.2496 20.8859 37.2272 20.7606 37.1704 20.6498L36.1968 18.7501L37.1704 16.8507C37.2272 16.7399 37.2496 16.6146 37.2347 16.4909C37.2198 16.3672 37.1683 16.2508 37.0868 16.1566L35.6899 14.5424L36.1797 12.4643C36.2083 12.3429 36.1998 12.2158 36.1556 12.0993C36.1113 11.9827 36.0331 11.8821 35.9312 11.8103ZM35.8657 16.6558L34.9384 18.4651C34.8931 18.5533 34.8695 18.6511 34.8695 18.7502C34.8695 18.8494 34.8931 18.9472 34.9384 19.0354L35.8657 20.8447L34.5355 22.3815C34.4708 22.4563 34.4247 22.5453 34.4011 22.6414C34.3775 22.7374 34.377 22.8377 34.3997 22.9339L34.866 24.9117L33.205 26.0827C33.1242 26.1397 33.0581 26.2151 33.012 26.3027C32.966 26.3903 32.9414 26.4875 32.9403 26.5864L32.9168 28.6188L31.0233 29.3581C30.9311 29.3942 30.8487 29.4516 30.783 29.5257C30.7173 29.5999 30.6702 29.6885 30.6455 29.7845L30.1384 31.7532L28.1233 32.0205C28.0251 32.0334 27.9314 32.0696 27.8499 32.1259C27.7684 32.1822 27.7015 32.2571 27.6546 32.3444L26.6936 34.1345L24.6736 33.9116C24.5754 33.9009 24.4759 33.9135 24.3835 33.9486C24.291 33.9837 24.2082 34.0402 24.1418 34.1134L22.778 35.6201L20.871 34.917C20.7781 34.8828 20.6784 34.8712 20.5801 34.883C20.4818 34.8949 20.3877 34.9299 20.3056 34.9852L18.6196 36.1215L16.9336 34.9853C16.8515 34.93 16.7574 34.895 16.6591 34.8831C16.5608 34.8713 16.4611 34.8829 16.3682 34.9172L14.4613 35.6203L13.0975 34.1138C13.0311 34.0405 12.9483 33.984 12.8558 33.949C12.7634 33.9139 12.664 33.9012 12.5657 33.912L10.5456 34.1348L9.58396 32.3438C9.53709 32.2566 9.47014 32.1817 9.38864 32.1254C9.30714 32.069 9.21342 32.0329 9.11521 32.0199L7.10021 31.7527L6.59302 29.7839C6.56832 29.688 6.52118 29.5994 6.45549 29.5252C6.38981 29.4511 6.30745 29.3937 6.21521 29.3577L4.32169 28.6183L4.29927 26.586C4.29816 26.4871 4.27358 26.3898 4.22755 26.3023C4.18152 26.2147 4.11536 26.1393 4.0345 26.0823L2.37357 24.9113L2.83974 22.9334C2.86245 22.8372 2.86198 22.7369 2.83838 22.6409C2.81477 22.5449 2.7687 22.4558 2.70396 22.3811L1.37349 20.8444L2.30076 19.0351C2.34606 18.9469 2.36968 18.8491 2.36968 18.7499C2.36968 18.6507 2.34606 18.553 2.30076 18.4648L1.37349 16.6558L2.70365 15.119C2.76837 15.0442 2.81442 14.9552 2.83803 14.8591C2.86163 14.7631 2.86211 14.6628 2.83943 14.5666L2.37318 12.5888L4.03411 11.4177C4.11496 11.3607 4.18111 11.2853 4.22714 11.1978C4.27317 11.1102 4.29776 11.013 4.29888 10.9141L4.32232 8.88172L6.21583 8.14234C6.30808 8.1063 6.39045 8.04885 6.45613 7.97473C6.52182 7.9006 6.56895 7.81193 6.59365 7.71602L7.10075 5.74727L9.11583 5.48C9.21404 5.46702 9.30776 5.43089 9.38926 5.37457C9.47076 5.31825 9.53771 5.24337 9.58458 5.15609L10.5455 3.3657L12.5655 3.58851C12.6638 3.59922 12.7632 3.58651 12.8556 3.55144C12.9481 3.51637 13.0309 3.45992 13.0973 3.38672L14.4611 1.88008L16.3682 2.5832C16.4611 2.61736 16.5608 2.62899 16.6591 2.61713C16.7574 2.60528 16.8514 2.57027 16.9336 2.515L18.6196 1.37867L20.3056 2.51484C20.3877 2.57017 20.4818 2.6052 20.5801 2.61704C20.6784 2.62889 20.7781 2.61721 20.871 2.58297L22.7779 1.87984L24.1417 3.38641C24.2081 3.45963 24.2909 3.51609 24.3834 3.55116C24.4758 3.58624 24.5752 3.59893 24.6735 3.5882L26.6936 3.36539L27.6552 5.15633C27.7021 5.2436 27.769 5.31849 27.8505 5.3748C27.932 5.43112 28.0257 5.46726 28.124 5.48023L30.139 5.7475L30.6461 7.71625C30.6708 7.81215 30.718 7.90081 30.7837 7.97492C30.8494 8.04902 30.9317 8.10646 31.024 8.1425L32.9175 8.88187L32.9399 10.9141C32.941 11.0131 32.9656 11.1103 33.0116 11.1979C33.0576 11.2855 33.1238 11.3609 33.2047 11.4179L34.8656 12.5888L34.3994 14.5667C34.3767 14.663 34.3772 14.7632 34.4008 14.8592C34.4244 14.9553 34.4705 15.0443 34.5352 15.1191L35.8657 16.6558Z" fill="white"/>
<path d="M29.8696 18.75V18.7763H31.1196V18.75C31.1196 18.314 31.0971 17.8783 31.0522 17.4446L29.809 17.5736C29.8493 17.9645 29.8695 18.3571 29.8696 18.75Z" fill="white"/>
<path d="M8.33363 23.3138L7.19136 23.8217C7.36884 24.2204 7.56703 24.6097 7.78511 24.9878L8.86792 24.3633C8.67167 24.023 8.49333 23.6727 8.33363 23.3138V23.3138Z" fill="white"/>
<path d="M10.243 28.0282C10.5667 28.3206 10.9055 28.5959 11.2578 28.8531L11.9946 27.8438C11.6774 27.6121 11.3725 27.3642 11.081 27.101L10.243 28.0282Z" fill="white"/>
<path d="M26.9816 11.224C27.2445 11.516 27.492 11.8215 27.7233 12.1392L28.734 11.4037C28.4773 11.0512 28.2024 10.7122 27.9106 10.3881L26.9816 11.224Z" fill="white"/>
<path d="M14.7379 30.6356C15.153 30.7708 15.5748 30.8843 16.0017 30.9754L16.2623 29.7529C15.8784 29.671 15.499 29.5689 15.1258 29.4472L14.7379 30.6356Z" fill="white"/>
<path d="M29.6262 16.4111L30.8492 16.1524C30.7588 15.7253 30.646 15.3032 30.5114 14.8879L29.3227 15.2736C29.4437 15.6472 29.5451 16.0268 29.6262 16.4111V16.4111Z" fill="white"/>
<path d="M28.9008 14.175L30.0425 13.6661C29.8647 13.2673 29.6662 12.8781 29.4477 12.5001L28.3657 13.1261C28.5622 13.4661 28.7409 13.8162 28.9008 14.175V14.175Z" fill="white"/>
<path d="M17.2935 31.1805C17.7271 31.2261 18.1629 31.2493 18.5989 31.25L18.6009 30C18.2081 29.9994 17.8155 29.9786 17.4248 29.9375L17.2935 31.1805Z" fill="white"/>
<path d="M9.50865 25.351L8.49701 26.0853C8.7533 26.4384 9.02782 26.7779 9.31943 27.1024L10.2491 26.2668C9.98662 25.9745 9.73946 25.6688 9.50865 25.351V25.351Z" fill="white"/>
<path d="M26.986 9.46266C26.6619 9.17059 26.3229 8.89555 25.9703 8.63867L25.2347 9.6493C25.5521 9.88052 25.8572 10.1281 26.1488 10.391L26.986 9.46266Z" fill="white"/>
<path d="M24.8742 7.92514C24.4966 7.70667 24.1078 7.50807 23.7095 7.33014L23.1999 8.47154C23.5583 8.63168 23.9081 8.81041 24.2479 9.00701L24.8742 7.92514Z" fill="white"/>
<path d="M15.1491 8.04532L14.764 6.85626C14.3486 6.99097 13.9407 7.14744 13.5418 7.32501L14.0501 8.46697C14.4088 8.3073 14.7757 8.16656 15.1491 8.04532V8.04532Z" fill="white"/>
<path d="M17.4494 7.56009L17.3211 6.31665C16.8871 6.36154 16.4557 6.42903 16.0287 6.51884L16.2865 7.74204C16.6707 7.66109 17.0588 7.60036 17.4494 7.56009V7.56009Z" fill="white"/>
<path d="M19.9321 6.31811C19.4983 6.27301 19.0626 6.2503 18.6265 6.25006L18.6259 7.50006C19.0187 7.5003 19.4113 7.52077 19.8021 7.56139L19.9321 6.31811Z" fill="white"/>
<path d="M22.4881 6.86043C22.073 6.72564 21.6511 6.61265 21.2242 6.52191L20.9647 7.74465C21.3487 7.8263 21.7281 7.928 22.1015 8.04933L22.4881 6.86043Z" fill="white"/>
<path d="M27.7095 25.38L28.7188 26.1175C28.9761 25.7652 29.2149 25.3998 29.4341 25.0227L28.3535 24.3945C28.1561 24.7339 27.9411 25.0629 27.7095 25.38V25.38Z" fill="white"/>
<path d="M24.2272 28.505L24.8514 29.5881C25.2294 29.3702 25.5958 29.1327 25.9491 28.8766L25.2155 27.8646C24.8974 28.0951 24.5676 28.3089 24.2272 28.505Z" fill="white"/>
<path d="M12.3529 29.568C12.7303 29.787 13.1189 29.9861 13.517 30.1644L14.0279 29.0238C13.6696 28.8633 13.32 28.6842 12.9804 28.4872L12.3529 29.568Z" fill="white"/>
<path d="M26.1316 27.1251L26.9666 28.0548C27.2912 27.7634 27.6004 27.4553 27.893 27.1319L26.9659 26.2935C26.7024 26.5849 26.4239 26.8625 26.1316 27.1251V27.1251Z" fill="white"/>
<path d="M28.8905 23.3476L30.0311 23.859C30.2096 23.4607 30.3671 23.0532 30.5028 22.6384L29.3149 22.2501C29.1927 22.6231 29.051 22.9895 28.8905 23.3476V23.3476Z" fill="white"/>
<path d="M22.0782 29.4586L22.462 30.6482C22.8775 30.5141 23.2857 30.3582 23.6848 30.1811L23.1778 29.0385C22.8189 29.1977 22.4519 29.338 22.0782 29.4586V29.4586Z" fill="white"/>
<path d="M7.6155 16.3985L6.393 16.1389C6.30243 16.5657 6.23421 16.997 6.18863 17.4309L7.43175 17.5614C7.47268 17.1708 7.53401 16.7827 7.6155 16.3985Z" fill="white"/>
<path d="M7.3696 18.7501V18.7369H6.1196V18.7501C6.11959 19.1815 6.14163 19.6127 6.18561 20.0419L7.42905 19.914C7.38944 19.5273 7.3696 19.1388 7.3696 18.7501V18.7501Z" fill="white"/>
<path d="M19.7774 29.9412L19.9043 31.1848C20.3383 31.1404 20.7697 31.0734 21.1967 30.9841L20.9406 29.7606C20.5562 29.841 20.168 29.9013 19.7774 29.9412V29.9412Z" fill="white"/>
<path d="M8.34357 14.1641L7.20232 13.6541C7.02434 14.0526 6.86738 14.4602 6.73209 14.8751L7.9206 15.2623C8.0423 14.8891 8.18348 14.5225 8.34357 14.1641V14.1641Z" fill="white"/>
<path d="M7.61046 21.077L6.38718 21.3342C6.47712 21.7615 6.58941 22.1837 6.72358 22.5992L7.91303 22.2146C7.79228 21.841 7.69128 21.4612 7.61046 21.077V21.077Z" fill="white"/>
<path d="M29.621 21.1136L30.8434 21.375C30.9345 20.9482 31.0032 20.517 31.0492 20.0831L29.8062 19.9513C29.7647 20.3417 29.7029 20.7296 29.621 21.1136V21.1136Z" fill="white"/>
<path d="M11.0983 10.3838L10.2623 9.45459C9.93812 9.74644 9.62924 10.0549 9.33693 10.3787L10.265 11.216C10.5282 10.9244 10.8063 10.6467 11.0983 10.3838V10.3838Z" fill="white"/>
<path d="M9.52247 12.1302L8.51231 11.3938C8.25542 11.7464 8.01703 12.112 7.7981 12.4893L8.8795 13.1164C9.07654 12.7767 9.29116 12.4475 9.52247 12.1302V12.1302Z" fill="white"/>
<path d="M13.0011 9.00132L12.3761 7.91882C11.9983 8.13726 11.6321 8.37518 11.279 8.63164L12.0138 9.64289C12.3315 9.41199 12.6611 9.19784 13.0011 9.00132V9.00132Z" fill="white"/>
<path d="M28.6196 18.7501C28.6196 16.7723 28.0331 14.8389 26.9343 13.1944C25.8355 11.5499 24.2737 10.2682 22.4464 9.51133C20.6192 8.75445 18.6085 8.55642 16.6687 8.94227C14.7289 9.32813 12.947 10.2805 11.5485 11.6791C10.15 13.0776 9.19759 14.8594 8.81173 16.7992C8.42588 18.739 8.62392 20.7497 9.38079 22.577C10.1377 24.4042 11.4194 25.966 13.0639 27.0648C14.7084 28.1636 16.6418 28.7501 18.6196 28.7501C21.2708 28.7471 23.8126 27.6926 25.6873 25.8179C27.562 23.9432 28.6166 21.4014 28.6196 18.7501ZM18.6196 27.5001C16.889 27.5001 15.1973 26.987 13.7583 26.0255C12.3194 25.064 11.1979 23.6975 10.5356 22.0986C9.87338 20.4998 9.7001 18.7404 10.0377 17.0431C10.3753 15.3458 11.2087 13.7867 12.4324 12.5629C13.6561 11.3392 15.2152 10.5059 16.9125 10.1683C18.6099 9.83063 20.3692 10.0039 21.9681 10.6662C23.5669 11.3284 24.9335 12.45 25.8949 13.8889C26.8564 15.3278 27.3696 17.0195 27.3696 18.7501C27.367 21.07 26.4442 23.294 24.8039 24.9344C23.1635 26.5748 20.9394 27.4975 18.6196 27.5001V27.5001Z" fill="white"/>
<path d="M24.3204 14.9242C23.9685 14.5732 23.4917 14.376 22.9946 14.376C22.4975 14.376 22.0207 14.5732 21.6687 14.9242L16.1196 20.4735L14.9454 19.2992C14.5938 18.9476 14.1169 18.7501 13.6196 18.7501C13.1223 18.7501 12.6454 18.9476 12.2937 19.2992C11.9421 19.6509 11.7445 20.1278 11.7445 20.6251C11.7445 21.1224 11.9421 21.5993 12.2937 21.951L14.7937 24.451C14.9678 24.6251 15.1745 24.7632 15.402 24.8574C15.6295 24.9517 15.8733 25.0002 16.1196 25.0002C16.3658 25.0002 16.6096 24.9517 16.8371 24.8574C17.0646 24.7632 17.2713 24.6251 17.4454 24.451L24.3204 17.576C24.4945 17.4019 24.6327 17.1952 24.7269 16.9677C24.8211 16.7402 24.8696 16.4963 24.8696 16.2501C24.8696 16.0039 24.8211 15.76 24.7269 15.5326C24.6327 15.3051 24.4945 15.0984 24.3204 14.9242V14.9242ZM23.4364 16.692L16.5614 23.567C16.4442 23.6842 16.2853 23.75 16.1196 23.75C15.9538 23.75 15.7949 23.6842 15.6777 23.567L13.1777 21.067C13.0627 20.9493 12.9987 20.791 12.9996 20.6265C13.0005 20.462 13.0663 20.3044 13.1827 20.1881C13.2991 20.0717 13.4566 20.006 13.6212 20.0051C13.7857 20.0042 13.944 20.0682 14.0616 20.1832L15.6778 21.7992C15.795 21.9164 15.9539 21.9823 16.1197 21.9823C16.2854 21.9823 16.4444 21.9164 16.5616 21.7992L22.5528 15.8082C22.6104 15.7485 22.6794 15.7009 22.7556 15.6682C22.8319 15.6354 22.9139 15.6182 22.9969 15.6174C23.0799 15.6167 23.1622 15.6325 23.239 15.664C23.3158 15.6954 23.3856 15.7418 23.4443 15.8005C23.5029 15.8592 23.5494 15.9289 23.5808 16.0058C23.6122 16.0826 23.628 16.1649 23.6273 16.2479C23.6266 16.3308 23.6093 16.4129 23.5766 16.4891C23.5438 16.5654 23.4962 16.6343 23.4365 16.692H23.4364Z" fill="white"/>
<path d="M18.6196 3.75006C10.3486 3.75006 3.6196 10.479 3.6196 18.7501C3.6196 27.0211 10.3486 33.7501 18.6196 33.7501C26.8906 33.7501 33.6196 27.0211 33.6196 18.7501C33.6196 10.479 26.8906 3.75006 18.6196 3.75006ZM18.6196 32.5001C11.0378 32.5001 4.8696 26.3319 4.8696 18.7501C4.8696 11.1683 11.0378 5.00006 18.6196 5.00006C26.2014 5.00006 32.3696 11.1683 32.3696 18.7501C32.3696 26.3319 26.2014 32.5001 18.6196 32.5001Z" fill="white"/>
</svg>
