<svg width="10" height="8" viewBox="0 0 10 8" fill="none" xmlns="http://www.w3.org/2000/svg">
<path d="M0.115385 4.38458C0.0384615 4.30765 0 4.19227 0 4.11535C0 4.03842 0.0384615 3.92304 0.115385 3.84612L0.653846 3.30765C0.807692 3.15381 1.03846 3.15381 1.19231 3.30765L1.23077 3.34612L3.34615 5.61535C3.42308 5.69227 3.53846 5.69227 3.61538 5.61535L8.76923 0.269193H8.80769C8.96154 0.115347 9.19231 0.115347 9.34615 0.269193L9.88462 0.807655C10.0385 0.961501 10.0385 1.19227 9.88462 1.34612L3.73077 7.73073C3.65385 7.80766 3.57692 7.84612 3.46154 7.84612C3.34615 7.84612 3.26923 7.80766 3.19231 7.73073L0.192308 4.49996L0.115385 4.38458Z" fill="#1C2E36"/>
</svg>
