<svg width="32" height="32" viewBox="0 0 32 32" fill="none" xmlns="http://www.w3.org/2000/svg">
<g clip-path="url(#clip0)">
<path d="M31.7121 18.7749L28.6249 15.6877L31.7121 12.6005C32.5837 11.7289 31.2652 10.3961 30.3864 11.2748L27.2993 14.362L24.2121 11.2748C23.3405 10.4033 22.0076 11.7218 22.8864 12.6005L25.9736 15.6877L22.8864 18.7749C21.9982 19.6631 23.3532 20.9594 24.2121 20.1006L27.2993 17.0134L30.3864 20.1006C31.2581 20.9722 32.5909 19.6536 31.7121 18.7749Z" fill="white"/>
<path d="M2.8125 7.25024C1.26163 7.25024 0 8.51187 0 10.0627V21.9357C0 23.4866 1.26163 24.7482 2.8125 24.7482H7.5V7.25024H2.8125Z" fill="white"/>
<path d="M19.0054 0.269368C18.0103 -0.19757 16.8613 -0.050132 16.0117 0.654805L9.375 6.18549V25.8128L16.0126 31.3436C17.8387 32.8671 20.625 31.5702 20.625 29.1821V2.81637C20.625 1.71312 20.0043 0.73718 19.0054 0.269368Z" fill="white"/>
</g>
<defs>
<clipPath id="clip0">
<rect width="32" height="32" fill="white"/>
</clipPath>
</defs>
</svg>
