<svg width="32" height="32" viewBox="0 0 32 32" fill="none" xmlns="http://www.w3.org/2000/svg">
<g clip-path="url(#clip0)">
<path d="M30.9854 6.25966C30.3585 5.90422 29.5899 5.91398 28.9707 6.28505L23.9395 9.30361C23.6094 7.4286 21.9688 5.99987 20 5.99987H11.6562L31.2194 25.563C31.7002 25.1878 32 24.6209 32 23.9999V7.99989C32 7.27917 31.6124 6.61419 30.9854 6.25966V6.25966Z" fill="white"/>
<path d="M0 2.82902L3.24795 6.07697C1.40114 6.43034 0 8.05239 0 10.0009V22.0009C0 24.2069 1.79394 26.0009 3.99998 26.0009H20C20.8924 26.0009 21.6968 25.6859 22.3594 25.1883L29.1719 32.0009L32 29.1727L2.82823 0.000976562L6.10413e-05 2.82908L0 2.82902Z" fill="white"/>
</g>
<defs>
<clipPath id="clip0">
<rect width="32" height="32" fill="white"/>
</clipPath>
</defs>
</svg>
