<svg width="25" height="24" viewBox="0 0 25 24" fill="none" xmlns="http://www.w3.org/2000/svg">
<path d="M23.407 17.6762L19.6138 13.8964C18.7529 13.0335 17.3554 13.0318 16.4925 13.8927C16.4912 13.894 16.49 13.8952 16.4887 13.8964L14.3154 16.0698C14.151 16.2346 13.8918 16.2574 13.7012 16.1238C12.5117 15.2925 11.3982 14.3573 10.3737 13.3295C9.45616 12.414 8.61212 11.4278 7.84931 10.3799C7.71105 10.1916 7.73114 9.93059 7.89653 9.76568L10.1239 7.53831C10.9838 6.67671 10.9838 5.28159 10.1239 4.41999L6.33065 0.626744C5.45655 -0.208915 4.07971 -0.208915 3.20561 0.626744L2.00421 1.82815C0.189808 3.62214 -0.457916 6.28597 0.330284 8.71274C0.918448 10.4882 1.74984 12.1736 2.80064 13.7209C3.74664 15.1394 4.83192 16.4599 6.04045 17.6627C7.35432 18.986 8.80971 20.1607 10.3804 21.1658C12.1071 22.2925 14.003 23.1356 15.9961 23.6631C16.5084 23.7894 17.0343 23.8528 17.5619 23.852C19.371 23.841 21.1017 23.1128 22.3744 21.8272L23.4071 20.7945C24.267 19.9329 24.267 18.5378 23.407 17.6762ZM22.4512 19.8739C22.4504 19.8748 22.4495 19.8758 22.4485 19.8766L22.4553 19.8564L21.4226 20.8891C20.0957 22.2327 18.1633 22.7855 16.3266 22.347C14.4761 21.8517 12.717 21.0632 11.1159 20.0116C9.62844 19.061 8.24994 17.9497 7.00543 16.6976C5.86034 15.5609 4.83161 14.3127 3.93433 12.9718C2.9529 11.5289 2.17609 9.95709 1.62597 8.30104C0.99533 6.35557 1.51792 4.22083 2.97592 2.78664L4.17732 1.58524C4.51134 1.24971 5.05411 1.24852 5.38956 1.58255C5.39043 1.58342 5.39138 1.58429 5.39225 1.58524L9.18549 5.37849C9.52102 5.71251 9.52221 6.25528 9.18818 6.59073C9.18731 6.5916 9.18644 6.59247 9.18549 6.59342L6.95813 8.82078C6.31902 9.45293 6.23866 10.4575 6.76916 11.1832C7.57477 12.2888 8.46627 13.3291 9.43528 14.2948C10.5157 15.3798 11.6902 16.3669 12.945 17.2444C13.6701 17.7501 14.6531 17.6648 15.2804 17.0419L17.4335 14.855C17.7675 14.5195 18.3103 14.5183 18.6457 14.8523C18.6466 14.8532 18.6475 14.8541 18.6484 14.855L22.4485 18.6618C22.7841 18.9957 22.7853 19.5384 22.4512 19.8739Z" fill="white"/>
</svg>
