<svg width="133" height="30" viewBox="0 0 133 30" fill="none" xmlns="http://www.w3.org/2000/svg">
<path fill-rule="evenodd" clip-rule="evenodd" d="M113.503 0.269189C113.503 0.269189 118.458 -0.253009 119.329 10.872C119.668 10.6102 121.827 6.20753 125.456 6.20753C129.086 6.20753 129.844 11.6972 129.692 14.2744C129.541 16.85 131.054 24.28 132.191 26.9336C132.456 27.4926 132.908 29.7711 130.337 29.9947C127.765 30.2198 126.441 23.2003 126.441 23.2003C125.729 19.5037 125.338 15.7512 125.27 11.9885C125.27 11.4295 125.081 10.3086 124.286 11.4663C123.492 12.6239 120.768 17.1781 120.768 17.1781C120.277 18.0195 119.36 18.5225 118.385 18.4858C116.646 18.4858 115.549 16.2087 115.209 12.4754C115.062 10.0865 114.604 7.72557 113.847 5.45438C113.62 5.15578 113.544 4.48354 112.863 5.60442C111.043 8.69789 109.656 12.0267 108.741 15.4997C107.341 20.6878 106.168 26.1025 106.168 26.1025C106.168 26.1025 105.865 28.231 104.049 28.231C102.233 28.231 101.591 26.9233 102.008 25.0949C102.425 23.265 104.616 13.3344 106.243 9.52458C107.87 5.71622 109.911 0.52661 113.503 0.264776V0.269189ZM85.7394 12.7019C85.632 12.9152 85.7159 13.1741 85.9292 13.2829C85.9409 13.2888 85.9527 13.2932 85.966 13.2991C87.4825 13.7125 89.0462 13.9257 90.6172 13.9346C92.9634 13.9346 97.5779 12.8887 97.5779 9.64079C97.5779 6.3914 95.3846 4.22612 93.5312 4.22612C91.6778 4.22612 86.6853 6.79739 85.7394 12.6975V12.7019ZM83.6212 27.4867C83.6212 27.4867 81.578 27.3749 81.3515 25.7686C81.1249 24.1637 80.7454 19.4213 80.7454 17.89C80.7454 16.3587 81.2 1.38566 93.4929 0C94.5153 0 101.816 1.15766 101.816 9.89527C101.816 17.4737 92.5471 18.1445 90.9967 18.1445C89.055 18.0489 87.1206 17.8253 85.2098 17.4723C85.2084 19.7538 85.3216 22.0338 85.5496 24.3035C85.7762 26.1025 85.5129 27.2602 83.6212 27.4867ZM67.5199 13.6021C67.5199 13.6021 69.9588 13.8831 69.9588 15.8145C69.9588 17.5238 68.2863 18.168 67.0933 18.168C65.9151 18.1504 64.9736 17.1825 64.9898 16.0042C64.9913 15.9645 64.9913 15.9263 64.9942 15.8851C64.9913 14.5553 66.5241 13.6021 67.5155 13.6021H67.5199ZM37.5899 0.638405C37.5899 0.638405 41.6189 0.526611 42.072 6.91065V11.4471C42.072 11.4471 45.5905 7.24604 49.7887 7.24604C53.9869 7.24604 55.1195 13.1814 54.7253 18.0563C54.665 20.6363 54.7797 23.2194 55.0651 25.7848C55.2196 26.9807 54.3738 28.0751 53.1764 28.2295C53.0881 28.2413 52.9984 28.2472 52.9101 28.2487C52.9101 28.2487 50.583 27.8559 50.583 25.7848C50.583 23.7136 50.355 21.6954 50.4168 19.5669C50.4771 17.4384 50.9273 13.0696 49.849 11.8384C48.7693 10.6057 45.5361 14.0228 44.3446 15.254C43.1531 16.4838 42.4735 17.6061 40.4304 17.6061C38.3872 17.6061 37.99 14.8936 37.8767 13.5609C37.8767 13.5609 37.9047 7.49757 37.7944 6.65765C37.6826 5.81625 37.509 5.22786 37.3104 5.22786C37.1118 5.22786 35.5805 6.18252 34.3317 9.2598C32.5474 13.5389 31.2353 17.9989 30.4174 22.5619C30.1335 24.1034 30.5307 26.0069 28.0918 25.951C25.6515 25.8936 25.9633 23.4033 26.0192 22.9517C26.0766 22.5015 27.3254 14.2714 29.5098 9.62461C31.6942 4.97926 33.558 0.973788 37.587 0.638405H37.5899ZM8.27187 11.5766C8.27187 11.5766 11.2977 11.7266 12.8525 11.9885C14.4073 12.2503 16.8624 12.6975 16.8624 12.6975C16.8624 12.6975 16.8624 6.01335 13.9469 4.48354C13.5689 4.33497 12.2759 4.96896 11.0873 6.5738C9.95026 8.12274 9.00442 9.80259 8.27187 11.5766ZM3.65594 11.9502C6.90974 1.23562 12.9996 0.152985 13.7939 0.152985C20.9429 1.08558 21.1694 11.5398 21.3209 13.9302C21.4739 16.319 22.002 23.0782 22.1535 24.0843C22.2491 25.3082 21.3342 26.3761 20.1118 26.4702C20.0868 26.4717 20.0618 26.4732 20.0367 26.4747C18.6746 26.4747 17.9185 24.9434 17.8421 24.3462C17.767 23.7489 17.389 16.9545 17.2757 16.8795C15.7694 16.5235 14.2382 16.2867 12.6951 16.1705C10.8784 16.0572 7.96591 15.7586 6.98329 15.61C6.71852 16.0572 4.4488 24.533 4.25904 25.2993C3.97514 26.4776 2.78659 27.2057 1.60687 26.9204C1.49213 26.8939 1.38034 26.8556 1.27149 26.8115C-0.581944 26.176 0.137364 23.7857 0.137364 23.7857C0.137364 23.7857 0.403611 22.6678 3.65594 11.9502Z" fill="white"/>
</svg>
