<svg width="38" height="38" viewBox="0 0 38 38" fill="none" xmlns="http://www.w3.org/2000/svg">
<g clip-path="url(#clip0)">
<path d="M26.7057 18.6953C28.5169 16.1095 29.4742 13.0741 29.4742 9.91719V2.87858C29.4742 2.53097 29.2327 2.22974 28.8935 2.15408L19.31 0.0176735C19.2036 -0.00580979 19.0934 -0.00580979 18.987 0.0176735L9.40376 2.15408C9.06427 2.22974 8.82306 2.53097 8.82306 2.87858V9.91719C8.82306 13.0741 9.78037 16.1095 11.5915 18.695C13.4026 21.2808 15.9281 23.2177 18.8951 24.2968C18.9768 24.3264 19.0629 24.3415 19.1485 24.3415C19.2343 24.3415 19.3204 24.3264 19.4021 24.2968C22.3692 23.218 24.8946 21.2808 26.7057 18.6953ZM19.1485 22.8066C16.5792 21.816 14.3906 20.1043 12.8074 17.8435C11.172 15.5088 10.3074 12.768 10.3074 9.91719V3.47349L19.1485 1.50263L27.9898 3.47349V9.91719C27.9898 12.7677 27.1253 15.5085 25.4898 17.8435C23.9063 20.1043 21.7177 21.816 19.1485 22.8066Z" fill="white"/>
<path d="M26.7271 5.08054C26.7271 4.73264 26.4859 4.43171 26.1464 4.35604L19.3102 2.83194C19.2038 2.80846 19.0933 2.80846 18.9869 2.83194L12.1504 4.35604C11.7503 4.44533 11.4983 4.84194 11.5876 5.24203C11.6766 5.64211 12.0735 5.89405 12.4733 5.80476L19.1484 4.3169L25.2427 5.67545V9.91723C25.2427 12.2012 24.5501 14.397 23.24 16.2679C22.1873 17.7708 20.7777 18.9885 19.1484 19.8069C17.519 18.9888 16.1098 17.7708 15.0571 16.2679C13.9238 14.6498 13.2431 12.7584 13.0888 10.7986C13.0758 10.6351 13.0665 10.4698 13.061 10.3069C13.0468 9.89694 12.7009 9.57658 12.2936 9.5905C11.8839 9.6047 11.5633 9.94826 11.5775 10.3579C11.5839 10.5426 11.5943 10.7302 11.6088 10.9151C11.7839 13.1391 12.5559 15.2845 13.8412 17.1194C15.1107 18.9316 16.838 20.3789 18.8367 21.3043C18.9356 21.3501 19.0423 21.373 19.1487 21.373C19.2551 21.373 19.3615 21.3501 19.4603 21.3043C21.4593 20.3786 23.1866 18.9316 24.4559 17.1194C25.9417 14.998 26.7274 12.5074 26.7274 9.91723V5.08054H26.7271Z" fill="white"/>
<path d="M17.034 13.7699C17.1639 13.9236 17.3503 14.0178 17.5512 14.0311C17.5677 14.0323 17.5843 14.0329 17.6008 14.0329C17.784 14.0329 17.9617 13.965 18.0986 13.8412L23.4794 8.97294C23.7833 8.6981 23.8067 8.22872 23.5319 7.9246C23.2568 7.62076 22.7874 7.59728 22.4836 7.87212L17.6718 12.2252L16.2985 10.6008C16.0341 10.288 15.5656 10.2486 15.2528 10.5133C14.9396 10.778 14.9005 11.2462 15.1649 11.5593L17.034 13.7699Z" fill="white"/>
<path d="M12.8986 24.563C12.5075 24.0487 11.939 23.7216 11.298 23.6416C10.657 23.5619 10.0256 23.739 9.51995 24.1411C9.28337 24.3293 9.09232 24.5549 8.94823 24.8033L8.73021 24.5192C8.53655 24.2673 8.43015 23.9536 8.43015 23.6358V16.9402C8.43015 15.5723 7.31715 14.4594 5.94932 14.4594C4.66267 14.4594 3.60099 15.4254 3.47952 16.7059L2.68514 25.0837C2.61527 25.8174 2.82227 26.5454 3.2702 27.1369L9.5788 35.3514V37.2579C9.5788 37.6678 9.91104 38.0001 10.321 38.0001C10.7306 38.0001 11.0632 37.6678 11.0632 37.2579V35.0992C11.0632 34.9356 11.009 34.7768 10.9095 34.6472L4.45045 26.2367C4.2304 25.9462 4.12835 25.5864 4.16285 25.2237L4.95751 16.8462C5.00622 16.3316 5.43269 15.9437 5.94932 15.9437C6.49901 15.9437 6.94577 16.3908 6.94577 16.9402V23.6358C6.94577 24.2789 7.16147 24.9135 7.55315 25.4232L9.10681 27.4465C9.10913 27.4497 9.11145 27.4529 9.11377 27.4561L10.3674 29.0886C10.6173 29.4136 11.0832 29.4748 11.4082 29.2251C11.7332 28.9755 11.7943 28.5096 11.5447 28.1843L10.2871 26.5466C9.9957 26.161 10.0653 25.6044 10.4445 25.3028C10.635 25.1512 10.873 25.0845 11.1145 25.1144C11.356 25.1445 11.5702 25.2681 11.7175 25.4617L14.7138 29.3994C15.3035 30.1743 15.6282 31.1374 15.6282 32.1113V37.2579C15.6282 37.6678 15.9605 38.0001 16.3704 38.0001C16.7803 38.0001 17.1126 37.6678 17.1126 37.2579V32.1113C17.1126 30.8148 16.6803 29.5324 15.8952 28.5006L12.8986 24.563Z" fill="white"/>
<path d="M35.4039 25.0837L34.6092 16.7059C34.4877 15.4254 33.4257 14.4594 32.1394 14.4594C30.7716 14.4594 29.6586 15.5723 29.6586 16.9402V23.6358C29.6586 23.9536 29.5519 24.2673 29.3585 24.5192L29.1402 24.8033C28.9964 24.5551 28.8053 24.3296 28.5688 24.1411C28.0631 23.739 27.4317 23.5619 26.7907 23.6416C26.1497 23.7216 25.5812 24.0487 25.1901 24.563L22.1938 28.5006C21.4087 29.5324 20.9761 30.8148 20.9761 32.1116V37.2579C20.9761 37.6678 21.3086 38.0001 21.7183 38.0001C22.1282 38.0001 22.4605 37.6678 22.4605 37.2579V32.1113C22.4605 31.1374 22.7852 30.1743 23.3749 29.3994L26.3712 25.4617C26.5188 25.2681 26.733 25.1448 26.9745 25.1144C27.216 25.0845 27.454 25.1512 27.6445 25.3028C28.0234 25.6044 28.0933 26.161 27.8016 26.5466L26.5443 28.1843C26.2946 28.5096 26.3558 28.9755 26.6808 29.2251C27.0058 29.4748 27.4717 29.4136 27.7216 29.0886L28.9749 27.4561C28.9773 27.4532 28.9793 27.4503 28.9816 27.4474L30.5359 25.4234C30.9272 24.9135 31.1429 24.2789 31.1429 23.6358V16.9402C31.1429 16.3908 31.59 15.9437 32.1394 15.9437C32.656 15.9437 33.0825 16.3316 33.1315 16.8462L33.9261 25.2237C33.9604 25.5867 33.8583 25.9462 33.6412 26.2329L27.1792 34.6472C27.0797 34.7768 27.0258 34.9359 27.0258 35.0994V37.2579C27.0258 37.6678 27.3581 38.0001 27.768 38.0001C28.1779 38.0001 28.5102 37.6678 28.5102 37.2579V35.3514L34.8214 27.1331C35.2664 26.5454 35.4734 25.8174 35.4039 25.0837Z" fill="white"/>
<path d="M11.9 8.31977C12.1612 8.49401 12.5149 8.48299 12.7636 8.29136C12.9976 8.11103 13.1075 7.79618 13.0286 7.51032C12.9442 7.20387 12.67 6.9789 12.3514 6.9615C12.0359 6.9444 11.7382 7.1369 11.6225 7.43001C11.4955 7.75211 11.6129 8.12668 11.9 8.31977Z" fill="white"/>
</g>
<defs>
<clipPath id="clip0">
<rect width="38" height="38" fill="white"/>
</clipPath>
</defs>
</svg>
